<svg width="2378" height="1881" viewBox="0 0 2378 1881" fill="none" xmlns="http://www.w3.org/2000/svg">
<path d="M979.014 493.108C1055.7 332.358 1032.14 213.393 1151.5 122.253C1270.86 31.1135 1532.76 -32.123 1691.35 17.4142C1849.95 66.9514 1961.2 173.386 2083.88 244.219C2206.56 315.052 2340.67 350.284 2370.77 426.041C2400.8 501.489 2326.83 617.463 2325.34 743.961C2323.46 870.538 2394.45 1007.56 2352.39 1102.1C2310.65 1196.24 2156.17 1247.52 2019.78 1240.52C1883.31 1233.2 1765.24 1167.23 1589.51 1182.23C1414.23 1197.46 1181.29 1293.66 1016.69 1267.96C852.473 1242.18 756.209 1094.56 768.751 947.385C781.292 800.209 902.325 653.858 979.014 493.108Z" fill="#576CA8"/>
<path d="M979.014 493.108C1055.7 332.358 1032.14 213.393 1151.5 122.253C1270.86 31.1135 1532.76 -32.123 1691.35 17.4142C1849.95 66.9514 1961.2 173.386 2083.88 244.219C2206.56 315.052 2340.67 350.284 2370.77 426.041C2400.8 501.489 2326.83 617.463 2325.34 743.961C2323.46 870.538 2394.45 1007.56 2352.39 1102.1C2310.65 1196.24 2156.17 1247.52 2019.78 1240.52C1883.31 1233.2 1765.24 1167.23 1589.51 1182.23C1414.23 1197.46 1181.29 1293.66 1016.69 1267.96C852.473 1242.18 756.209 1094.56 768.751 947.385C781.292 800.209 902.325 653.858 979.014 493.108Z" fill="url(#paint0_linear)"/>
<path d="M134.435 1291.03C78.3036 1122.29 -19.9197 973.051 3.56128 826.337C27.0422 679.622 172.006 535.74 322.119 465.169C472.233 394.597 627.497 397.337 766.277 366.444C905.058 335.55 1215.8 31.4079 1290.53 66.3775C1365 101.166 1203.47 475.067 1290.53 568.271C1377.38 661.788 1524.61 713.91 1559.84 811.104C1595.02 907.804 1604.31 1086.67 1500.01 1173.31C1316.81 1235.88 1177.28 1253.52 1059.65 1382.65C942.509 1511.66 839.776 1738.46 701.891 1830.45C564.229 1922.12 391.194 1879.28 297.768 1763.57C204.342 1647.86 190.566 1459.78 134.435 1291.03Z" fill="#576CA8"/>
<path d="M134.435 1291.03C78.3036 1122.29 -19.9197 973.051 3.56128 826.337C27.0422 679.622 172.006 535.74 322.119 465.169C472.233 394.597 627.497 397.337 766.277 366.444C905.058 335.55 1215.8 31.4079 1290.53 66.3775C1365 101.166 1203.47 475.067 1290.53 568.271C1377.38 661.788 1524.61 713.91 1559.84 811.104C1595.02 907.804 1604.31 1086.67 1500.01 1173.31C1316.81 1235.88 1177.28 1253.52 1059.65 1382.65C942.509 1511.66 839.776 1738.46 701.891 1830.45C564.229 1922.12 391.194 1879.28 297.768 1763.57C204.342 1647.86 190.566 1459.78 134.435 1291.03Z" fill="url(#paint1_linear)"/>
<defs>
<linearGradient id="paint0_linear" x1="914.648" y1="1294.96" x2="2130.54" y2="665.539" gradientUnits="userSpaceOnUse">
<stop stop-color="#576CA8"/>
<stop offset="0.891649" stop-color="#8B9AC0"/>
</linearGradient>
<linearGradient id="paint1_linear" x1="914.648" y1="1294.96" x2="2130.54" y2="665.539" gradientUnits="userSpaceOnUse">
<stop stop-color="#576CA8"/>
<stop offset="0.891649" stop-color="#8B9AC0"/>
</linearGradient>
</defs>
</svg>
