<svg width="2520" height="1558" viewBox="0 0 2520 1558" fill="none" xmlns="http://www.w3.org/2000/svg">
<path d="M1416.75 1342.5C1270.48 1446.74 991.926 1462.09 842.586 1485.13C693.245 1508.17 509.39 1416.74 394.98 1298.01C280.57 1179.28 235.606 1033.26 163.112 912.958C90.6183 792.659 -9.40456 698.09 1.55388 617.482C12.418 537.175 134.264 470.829 197.857 360.827C261.822 250.936 267.164 97.2769 350.523 34.5269C433.416 -28.033 593.86 0.506409 709.787 71.4584C825.62 142.712 896.47 256.569 1057.65 326.957C1218.56 396.931 1469.8 423.436 1601.2 524.16C1732.24 624.773 1743.8 799.716 1660.36 922.566C1576.91 1045.42 1563.02 1238.26 1416.75 1342.5Z" fill="#8B9AC0"/>
<path d="M1416.75 1342.5C1270.48 1446.74 991.926 1462.09 842.586 1485.13C693.245 1508.17 509.39 1416.74 394.98 1298.01C280.57 1179.28 235.606 1033.26 163.112 912.958C90.6183 792.659 -9.40456 698.09 1.55388 617.482C12.418 537.175 134.264 470.829 197.857 360.827C261.822 250.936 267.164 97.2769 350.523 34.5269C433.416 -28.033 593.86 0.506409 709.787 71.4584C825.62 142.712 896.47 256.569 1057.65 326.957C1218.56 396.931 1469.8 423.436 1601.2 524.16C1732.24 624.773 1743.8 799.716 1660.36 922.566C1576.91 1045.42 1563.02 1238.26 1416.75 1342.5Z" fill="url(#paint0_linear)"/>
<path d="M2425 923.264C2391.04 1097.63 2403.52 1274.92 2310.73 1392.17C2217.94 1509.42 2020.22 1566.45 1854.09 1556.87C1687.96 1547.29 1553.42 1471.1 1416.75 1432.19C1280.07 1393.27 1220.06 1458.29 1171.87 1392.17C1123.83 1326.33 1087.6 1129.34 1057.29 1006.39C1027.33 883.269 924.141 767.68 941.167 665.873C957.986 564.518 1037.93 403.559 1171.87 377.295C1363.02 409.602 1493.83 460.481 1660.36 403.364C1826.4 346.132 2027.99 196.454 2193.96 181.48C2359.58 166.674 2489.93 286.402 2514.72 432.071C2539.52 577.74 2458.96 748.897 2425 923.264Z" fill="#8B9AC0"/>
<path d="M2425 923.264C2391.04 1097.63 2403.52 1274.92 2310.73 1392.17C2217.94 1509.42 2020.22 1566.45 1854.09 1556.87C1687.96 1547.29 1553.42 1471.1 1416.75 1432.19C1280.07 1393.27 1220.06 1458.29 1171.87 1392.17C1123.83 1326.33 1087.6 1129.34 1057.29 1006.39C1027.33 883.269 924.141 767.68 941.167 665.873C957.986 564.518 1037.93 403.559 1171.87 377.295C1363.02 409.602 1493.83 460.481 1660.36 403.364C1826.4 346.132 2027.99 196.454 2193.96 181.48C2359.58 166.674 2489.93 286.402 2514.72 432.071C2539.52 577.74 2458.96 748.897 2425 923.264Z" fill="url(#paint1_linear)"/>
<defs>
<linearGradient id="paint0_linear" x1="751.685" y1="-35.3321" x2="1263.51" y2="1563.25" gradientUnits="userSpaceOnUse">
<stop stop-color="#576CA8"/>
<stop offset="1" stop-color="#C6CDE0" stop-opacity="0.494792"/>
</linearGradient>
<linearGradient id="paint1_linear" x1="751.685" y1="-35.3321" x2="1263.51" y2="1563.25" gradientUnits="userSpaceOnUse">
<stop stop-color="#576CA8"/>
<stop offset="1" stop-color="#C6CDE0" stop-opacity="0.494792"/>
</linearGradient>
</defs>
</svg>
